<?xml version="1.0" encoding="UTF-8"?><svg id="Layer_1" xmlns="http://www.w3.org/2000/svg" xmlns:xlink="http://www.w3.org/1999/xlink" viewBox="0 0 4096 4096"><defs><style>.cls-1{fill:none;}.cls-2{fill:url(#linear-gradient);}</style><linearGradient id="linear-gradient" x1="979.4" y1="2024.27" x2="3571.73" y2="2024.27" gradientTransform="translate(625.13 -515.63) rotate(16.92)" gradientUnits="userSpaceOnUse"><stop offset="0" stop-color="#48e3ff"/><stop offset=".61" stop-color="#004fca"/><stop offset=".96" stop-color="#4be5ff"/></linearGradient></defs><rect class="cls-1" width="4096" height="4096"/><path class="cls-2" d="M3203.38,2869.82l-773.89-559.64c-4.85-3.51-11.55-2.91-15.7,1.39l-251.61,260.67c-35.83,37.12-95.39,36.81-130.84-.67l-393.02-415.6c-4.36-4.61-11.55-5.04-16.43-.98l-818.57,681.02c-76.39,63.56-184.54-24.64-137.64-112.25l659.74-1232.55c25.86-48.31,88.39-62.73,132.79-30.62l940.42,680.07c4.85,3.51,11.55,2.91,15.7-1.39l871.58-902.93c58.46-60.57,160.71-15.47,155.4,68.54l-94.61,1497.33c-4.49,71.1-85.59,109.36-143.32,67.61ZM2515.95,2225.5l697.32,504.27c7.68,5.55,18.46.46,19.05-8.99l82.93-1312.59c.71-11.17-12.89-17.17-20.66-9.11l-780.25,808.32c-5.08,5.27-4.32,13.81,1.61,18.1ZM1698.66,2046.17l389.98,412.39c4.71,4.98,12.63,5.02,17.39.09l207.74-215.21c5.08-5.27,4.32-13.81-1.61-18.1l-885.99-640.7c-5.9-4.27-14.22-2.35-17.65,4.07l-538.93,1006.85c-6.23,11.65,8.14,23.37,18.3,14.92l687.16-571.69c36.7-30.53,90.81-27.3,123.61,7.39Z"/></svg>